<svg xmlns="http://www.w3.org/2000/svg" viewBox="0 0 64 64">

  <path d="M31 8c5 2 8 7 8 13 0 5-2 10-4 15-2 6-3 12-3 20h-8c0-8-1-14-3-20-2-5-4-10-4-15 0-6 3-11 8-13Z" fill="#5fa84f"></path>

  <path d="M26 10c-5-3-10-2-14 2 5 1 9 4 11 8Z" fill="#4a8f42"></path>

  <path d="M30 11c5-4 11-4 16-1-5 2-9 5-12 10Z" fill="#4a8f42"></path>

  <path d="M23 24h13M22 31h13M23 38h11M24 45h9" stroke="#76b96a" stroke-width="2" stroke-linecap="round"></path>

  <path d="M22 18c2-4 5-6 9-7" fill="none" stroke="#ffffff" stroke-width="2" stroke-linecap="round" opacity=".25"></path>

</svg>